<svg xmlns="http://www.w3.org/2000/svg" viewBox="0 0 1200 760" width="1200" height="760">
  <defs>
    <filter id="aglow">
      <feGaussianBlur stdDeviation="3" result="blur"/>
      <feMerge><feMergeNode in="blur"/><feMergeNode in="SourceGraphic"/></feMerge>
    </filter>
    <linearGradient id="abgGrad" x1="0" y1="0" x2="1" y2="1">
      <stop offset="0%" stop-color="#0d1117"/>
      <stop offset="100%" stop-color="#010409"/>
    </linearGradient>
    <radialGradient id="centerGlow" cx="50%" cy="50%" r="50%">
      <stop offset="0%" stop-color="rgba(139,148,158,0.10)"/>
      <stop offset="100%" stop-color="rgba(13,17,23,0)"/>
    </radialGradient>
  </defs>

  <rect width="1200" height="760" fill="url(#abgGrad)" rx="12"/>
  <circle cx="600" cy="380" r="275" fill="url(#centerGlow)"/>
  <text x="600" y="36" text-anchor="middle" fill="#e6edf3" font-family="monospace" font-size="18" font-weight="bold">Agents (11)</text>

  <g stroke="#21262d" stroke-width="1.5" stroke-dasharray="4,4" opacity="0.5">
    <line x1="600" y1="350" x2="130" y2="126"/>
    <line x1="600" y1="350" x2="375" y2="126"/>
    <line x1="600" y1="350" x2="620" y2="126"/>
    <line x1="600" y1="350" x2="865" y2="126"/>
    <line x1="600" y1="350" x2="140" y2="351"/>
    <line x1="600" y1="350" x2="1060" y2="351"/>
    <line x1="600" y1="350" x2="120" y2="581"/>
    <line x1="600" y1="350" x2="350" y2="581"/>
    <line x1="600" y1="350" x2="580" y2="581"/>
    <line x1="600" y1="350" x2="810" y2="581"/>
    <line x1="600" y1="350" x2="1040" y2="581"/>
  </g>

  <rect x="470" y="304" width="260" height="92" rx="12" fill="rgba(210,168,255,0.12)" stroke="#d2a8ff" stroke-width="2" filter="url(#aglow)"/>
  <text x="600" y="338" text-anchor="middle" fill="#e6edf3" font-family="monospace" font-size="15" font-weight="bold">Main Agent</text>
  <text x="600" y="360" text-anchor="middle" fill="#8b949e" font-family="monospace" font-size="9">anthropic/claude-opus-4-8</text>
  <text x="600" y="381" text-anchor="middle" fill="#e6edf3" font-family="monospace" font-size="10">delegate · route · verify</text>

  <g transform="translate(30, 80)">
    <rect width="200" height="92" rx="10" fill="rgba(88,166,255,0.08)" stroke="#58a6ff" stroke-width="1.5"/>
    <text x="100" y="23" text-anchor="middle" fill="#58a6ff" font-family="monospace" font-size="12.5" font-weight="bold">🔍 finder</text>
    <text x="100" y="42" text-anchor="middle" fill="#8b949e" font-family="monospace" font-size="7">anthropic/claude-sonnet-4-6</text>
    <text x="100" y="62" text-anchor="middle" fill="#e6edf3" font-family="monospace" font-size="9">Fast file/code</text>
    <text x="100" y="77" text-anchor="middle" fill="#e6edf3" font-family="monospace" font-size="9">locator</text>
    <circle cx="185" cy="15" r="5" fill="#58a6ff" opacity="0.85"/>
  </g>

  <g transform="translate(275, 80)">
    <rect width="200" height="92" rx="10" fill="rgba(240,136,62,0.08)" stroke="#f0883e" stroke-width="1.5"/>
    <text x="100" y="23" text-anchor="middle" fill="#f0883e" font-family="monospace" font-size="12.5" font-weight="bold">⚡ worker</text>
    <text x="100" y="42" text-anchor="middle" fill="#8b949e" font-family="monospace" font-size="7">openai-codex/gpt-5.4</text>
    <text x="100" y="62" text-anchor="middle" fill="#e6edf3" font-family="monospace" font-size="9">General-purpose</text>
    <text x="100" y="77" text-anchor="middle" fill="#e6edf3" font-family="monospace" font-size="9">executor</text>
    <circle cx="185" cy="15" r="5" fill="#f0883e" opacity="0.85"/>
  </g>

  <g transform="translate(520, 80)">
    <rect width="200" height="92" rx="10" fill="rgba(210,168,255,0.10)" stroke="#d2a8ff" stroke-width="1.5"/>
    <text x="100" y="23" text-anchor="middle" fill="#d2a8ff" font-family="monospace" font-size="12.5" font-weight="bold">📐 planner</text>
    <text x="100" y="42" text-anchor="middle" fill="#8b949e" font-family="monospace" font-size="7">anthropic/claude-opus-4-8</text>
    <text x="100" y="62" text-anchor="middle" fill="#e6edf3" font-family="monospace" font-size="9">Implementation</text>
    <text x="100" y="77" text-anchor="middle" fill="#e6edf3" font-family="monospace" font-size="9">architect</text>
    <circle cx="185" cy="15" r="5" fill="#d2a8ff" opacity="0.85"/>
  </g>

  <g transform="translate(765, 80)">
    <rect width="200" height="92" rx="10" fill="rgba(240,136,62,0.08)" stroke="#f0883e" stroke-width="1.5"/>
    <text x="100" y="23" text-anchor="middle" fill="#f0883e" font-family="monospace" font-size="12.5" font-weight="bold">🖥️ browser</text>
    <text x="100" y="42" text-anchor="middle" fill="#8b949e" font-family="monospace" font-size="7">openai-codex/gpt-5.4</text>
    <text x="100" y="62" text-anchor="middle" fill="#e6edf3" font-family="monospace" font-size="9">Browser automation</text>
    <text x="100" y="77" text-anchor="middle" fill="#e6edf3" font-family="monospace" font-size="9">&amp; UI testing</text>
    <circle cx="185" cy="15" r="5" fill="#f0883e" opacity="0.85"/>
  </g>

  <g transform="translate(40, 305)">
    <rect width="200" height="92" rx="10" fill="rgba(88,166,255,0.08)" stroke="#58a6ff" stroke-width="1.5"/>
    <text x="100" y="23" text-anchor="middle" fill="#58a6ff" font-family="monospace" font-size="12.5" font-weight="bold">🌐 searcher</text>
    <text x="100" y="42" text-anchor="middle" fill="#8b949e" font-family="monospace" font-size="7">anthropic/claude-sonnet-4-6</text>
    <text x="100" y="62" text-anchor="middle" fill="#e6edf3" font-family="monospace" font-size="9">Research &amp; web</text>
    <text x="100" y="77" text-anchor="middle" fill="#e6edf3" font-family="monospace" font-size="9">search</text>
    <circle cx="185" cy="15" r="5" fill="#58a6ff" opacity="0.85"/>
  </g>

  <g transform="translate(960, 305)">
    <rect width="200" height="92" rx="10" fill="rgba(240,136,62,0.08)" stroke="#f0883e" stroke-width="1.5"/>
    <text x="100" y="23" text-anchor="middle" fill="#f0883e" font-family="monospace" font-size="12.5" font-weight="bold">🔎 reviewer</text>
    <text x="100" y="42" text-anchor="middle" fill="#8b949e" font-family="monospace" font-size="7">openai-codex/gpt-5.4</text>
    <text x="100" y="62" text-anchor="middle" fill="#e6edf3" font-family="monospace" font-size="9">Code review</text>
    <text x="100" y="77" text-anchor="middle" fill="#e6edf3" font-family="monospace" font-size="9">(P0–P3)</text>
    <circle cx="185" cy="15" r="5" fill="#f0883e" opacity="0.85"/>
  </g>

  <g transform="translate(20, 535)">
    <rect width="200" height="92" rx="10" fill="rgba(240,136,62,0.08)" stroke="#f0883e" stroke-width="1.5"/>
    <text x="100" y="23" text-anchor="middle" fill="#f0883e" font-family="monospace" font-size="11.2" font-weight="bold">🧹 code-cleaner</text>
    <text x="100" y="42" text-anchor="middle" fill="#8b949e" font-family="monospace" font-size="7">openai-codex/gpt-5.4</text>
    <text x="100" y="62" text-anchor="middle" fill="#e6edf3" font-family="monospace" font-size="9">Cleanup analyst</text>
    <text x="100" y="77" text-anchor="middle" fill="#e6edf3" font-family="monospace" font-size="9">(read-only)</text>
    <circle cx="185" cy="15" r="5" fill="#f0883e" opacity="0.85"/>
  </g>

  <g transform="translate(250, 535)">
    <rect width="200" height="92" rx="10" fill="rgba(240,136,62,0.08)" stroke="#f0883e" stroke-width="1.5"/>
    <text x="100" y="23" text-anchor="middle" fill="#f0883e" font-family="monospace" font-size="11.6" font-weight="bold">🥊 challenger</text>
    <text x="100" y="42" text-anchor="middle" fill="#8b949e" font-family="monospace" font-size="7">openai-codex/gpt-5.4</text>
    <text x="100" y="62" text-anchor="middle" fill="#e6edf3" font-family="monospace" font-size="9">Pressure tester</text>
    <circle cx="185" cy="15" r="5" fill="#f0883e" opacity="0.85"/>
  </g>

  <g transform="translate(480, 535)">
    <rect width="200" height="92" rx="10" fill="rgba(210,168,255,0.10)" stroke="#d2a8ff" stroke-width="1.5"/>
    <text x="100" y="23" text-anchor="middle" fill="#d2a8ff" font-family="monospace" font-size="12.5" font-weight="bold">✅ verifier</text>
    <text x="100" y="42" text-anchor="middle" fill="#8b949e" font-family="monospace" font-size="7">anthropic/claude-opus-4-8</text>
    <text x="100" y="62" text-anchor="middle" fill="#e6edf3" font-family="monospace" font-size="9">3-tier evidence</text>
    <text x="100" y="77" text-anchor="middle" fill="#e6edf3" font-family="monospace" font-size="9">validation</text>
    <circle cx="185" cy="15" r="5" fill="#d2a8ff" opacity="0.85"/>
  </g>

  <g transform="translate(710, 535)">
    <rect width="200" height="92" rx="10" fill="rgba(240,136,62,0.08)" stroke="#f0883e" stroke-width="1.5"/>
    <text x="100" y="23" text-anchor="middle" fill="#f0883e" font-family="monospace" font-size="10.4" font-weight="bold">🔐 security-auditor</text>
    <text x="100" y="42" text-anchor="middle" fill="#8b949e" font-family="monospace" font-size="7">openai-codex/gpt-5.4</text>
    <text x="100" y="62" text-anchor="middle" fill="#e6edf3" font-family="monospace" font-size="9">Security review</text>
    <text x="100" y="77" text-anchor="middle" fill="#e6edf3" font-family="monospace" font-size="9">(high-confidence)</text>
    <circle cx="185" cy="15" r="5" fill="#f0883e" opacity="0.85"/>
  </g>

  <g transform="translate(940, 535)">
    <rect width="200" height="92" rx="10" fill="rgba(88,166,255,0.08)" stroke="#58a6ff" stroke-width="1.5"/>
    <text x="100" y="23" text-anchor="middle" fill="#58a6ff" font-family="monospace" font-size="11.6" font-weight="bold">✨ simplifier</text>
    <text x="100" y="42" text-anchor="middle" fill="#8b949e" font-family="monospace" font-size="7">anthropic/claude-sonnet-4-6</text>
    <text x="100" y="62" text-anchor="middle" fill="#e6edf3" font-family="monospace" font-size="9">Code simplification</text>
    <text x="100" y="77" text-anchor="middle" fill="#e6edf3" font-family="monospace" font-size="9">specialist</text>
    <circle cx="185" cy="15" r="5" fill="#58a6ff" opacity="0.85"/>
  </g>

  <g transform="translate(28, 724)" font-family="monospace" font-size="10">
    <circle cx="8" cy="6" r="5" fill="#f0883e" opacity="0.9"/>
    <text x="20" y="10" fill="#8b949e">openai-codex/gpt-5.4</text>
    <circle cx="245" cy="6" r="5" fill="#58a6ff" opacity="0.9"/>
    <text x="257" y="10" fill="#8b949e">anthropic/claude-sonnet-4-6</text>
    <circle cx="535" cy="6" r="5" fill="#d2a8ff" opacity="0.95"/>
    <text x="547" y="10" fill="#8b949e">anthropic/claude-opus-4-8</text>
  </g>
</svg>
